<svg width="24" height="25" viewBox="0 0 24 25" fill="none" xmlns="http://www.w3.org/2000/svg">
<path d="M21.0004 2.50122L19.8051 3.36841C19.8051 3.36841 18.3138 4.47583 16.1722 5.57153C14.0306 6.66724 11.2416 7.72778 8.78943 7.72778H1.50037V14.5715L1.5238 14.6887L3.0238 19.9387L3.18787 20.4778H7.73474L7.47693 19.5168L6.25818 15.2278H8.78943C11.2094 15.2278 13.9984 16.3088 16.1488 17.4075C18.2992 18.5061 19.8051 19.5872 19.8051 19.5872L21.0004 20.4543V13.5872C21.8676 13.2737 22.5004 12.4475 22.5004 11.4778C22.5004 10.5081 21.8676 9.68189 21.0004 9.36841V2.50122ZM19.5004 5.29028V17.6418C18.8793 17.2229 18.3871 16.842 16.8285 16.0481C14.6254 14.9231 11.7806 13.7834 9.00037 13.7278V9.22778C11.807 9.17212 14.6547 8.00903 16.8519 6.88403C18.4076 6.08716 18.8851 5.70923 19.5004 5.29028ZM3.00037 9.22778H7.50037V13.7278H3.00037V9.22778ZM3.25818 15.2278H4.68787L5.74255 18.9778H4.31287L3.25818 15.2278Z" fill="currentColor"/>
</svg>
