<svg width="25" height="25" viewBox="0 0 25 25" fill="none" xmlns="http://www.w3.org/2000/svg">
<path d="M9.97119 2.65198L9.854 3.26135L9.40869 5.48792C8.69385 5.76917 8.04932 6.16467 7.46338 6.63635L5.28369 5.88635L4.69775 5.69885L4.39307 6.23792L2.89307 8.81604L2.58838 9.3551L3.03369 9.75354L4.72119 11.2301C4.65967 11.6139 4.58057 11.9977 4.58057 12.402C4.58057 12.8063 4.65967 13.1901 4.72119 13.5739L3.03369 15.0504L2.58838 15.4489L2.89307 15.9879L4.39307 18.566L4.69775 19.1051L5.28369 18.9176L7.46338 18.1676C8.04932 18.6393 8.69385 19.0348 9.40869 19.316L9.854 21.5426L9.97119 22.152H14.1899L14.3071 21.5426L14.7524 19.316C15.4673 19.0348 16.1118 18.6393 16.6978 18.1676L18.8774 18.9176L19.4634 19.1051L19.7681 18.566L21.2681 15.9879L21.5728 15.4489L21.1274 15.0504L19.4399 13.5739C19.5015 13.1901 19.5806 12.8063 19.5806 12.402C19.5806 11.9977 19.5015 11.6139 19.4399 11.2301L21.1274 9.75354L21.5728 9.3551L21.2681 8.81604L19.7681 6.23792L19.4634 5.69885L18.8774 5.88635L16.6978 6.63635C16.1118 6.16467 15.4673 5.76917 14.7524 5.48792L14.3071 3.26135L14.1899 2.65198H9.97119ZM11.1899 4.15198H12.9712L13.3462 6.09729L13.4399 6.5426L13.8618 6.68323C14.7144 6.94983 15.4878 7.401 16.1353 7.99573L16.4634 8.30042L16.8853 8.15979L18.7837 7.50354L19.6743 9.02698L18.1743 10.3629L17.8228 10.6442L17.9399 11.0895C18.0366 11.5172 18.0806 11.9537 18.0806 12.402C18.0806 12.8502 18.0366 13.2867 17.9399 13.7145L17.8462 14.1598L18.1743 14.441L19.6743 15.777L18.7837 17.3004L16.8853 16.6442L16.4634 16.5035L16.1353 16.8082C15.4878 17.403 14.7144 17.8541 13.8618 18.1207L13.4399 18.2614L13.3462 18.7067L12.9712 20.652H11.1899L10.8149 18.7067L10.7212 18.2614L10.2993 18.1207C9.44678 17.8541 8.67334 17.403 8.02588 16.8082L7.69775 16.5035L7.27588 16.6442L5.37744 17.3004L4.48682 15.777L5.98682 14.441L6.33838 14.1598L6.22119 13.7145C6.12451 13.2867 6.08057 12.8502 6.08057 12.402C6.08057 11.9537 6.12451 11.5172 6.22119 11.0895L6.33838 10.6442L5.98682 10.3629L4.48682 9.02698L5.37744 7.50354L7.27588 8.15979L7.69775 8.30042L8.02588 7.99573C8.67334 7.401 9.44678 6.94983 10.2993 6.68323L10.7212 6.5426L10.8149 6.09729L11.1899 4.15198ZM12.0806 8.65198C10.0181 8.65198 8.33057 10.3395 8.33057 12.402C8.33057 14.4645 10.0181 16.152 12.0806 16.152C14.1431 16.152 15.8306 14.4645 15.8306 12.402C15.8306 10.3395 14.1431 8.65198 12.0806 8.65198ZM12.0806 10.152C13.3315 10.152 14.3306 11.151 14.3306 12.402C14.3306 13.653 13.3315 14.652 12.0806 14.652C10.8296 14.652 9.83057 13.653 9.83057 12.402C9.83057 11.151 10.8296 10.152 12.0806 10.152Z" fill="currentColor"/>
</svg>
