<svg width="25" height="25" viewBox="0 0 25 25" fill="none" xmlns="http://www.w3.org/2000/svg">
<path d="M12.0409 5.08984C11.2118 5.08984 10.5409 5.76074 10.5409 6.58984C10.5409 7.41895 11.2118 8.08984 12.0409 8.08984C12.87 8.08984 13.5409 7.41895 13.5409 6.58984C13.5409 5.76074 12.87 5.08984 12.0409 5.08984ZM12.0409 11.0898C11.2118 11.0898 10.5409 11.7607 10.5409 12.5898C10.5409 13.4189 11.2118 14.0898 12.0409 14.0898C12.87 14.0898 13.5409 13.4189 13.5409 12.5898C13.5409 11.7607 12.87 11.0898 12.0409 11.0898ZM12.0409 17.0898C11.2118 17.0898 10.5409 17.7607 10.5409 18.5898C10.5409 19.4189 11.2118 20.0898 12.0409 20.0898C12.87 20.0898 13.5409 19.4189 13.5409 18.5898C13.5409 17.7607 12.87 17.0898 12.0409 17.0898Z" fill="currentColor"/>
</svg>
