<svg width="25" height="25" viewBox="0 0 25 25" fill="none" xmlns="http://www.w3.org/2000/svg">
<path d="M4.62085 2.93384V22.4338H19.6208V7.88354L19.3953 7.65942L14.8953 3.15942L14.6711 2.93384H4.62085ZM6.12085 4.43384H13.6208V8.93384H18.1208V20.9338H6.12085V4.43384ZM15.1208 5.48413L17.0706 7.43384H15.1208V5.48413ZM7.62085 10.4338V11.9338H16.6208V10.4338H7.62085ZM10.2458 12.6838C9.57085 12.6838 9.04585 13.1344 8.74585 13.6594C8.44585 14.1844 8.37085 14.8591 8.37085 15.6091C8.37085 16.0591 8.52144 16.5083 8.59644 16.9583C8.29644 17.0333 7.99585 17.2585 7.62085 17.2585V18.7585C8.14585 18.7585 8.67085 18.6844 9.12085 18.5344C9.19585 18.6844 9.19644 18.7594 9.34644 18.9094C9.64644 19.2094 10.0958 19.4338 10.6208 19.4338C11.8208 19.4338 12.5714 18.6085 13.0964 18.0085C13.1714 17.8585 13.2456 17.7833 13.3206 17.7083C13.3206 17.7833 13.3203 17.8588 13.3953 17.9338C13.4703 18.0838 13.5456 18.2335 13.6956 18.3835C13.8456 18.5335 14.1458 18.6838 14.3708 18.6838C14.8208 18.6838 15.1203 18.3841 15.2703 18.2341C15.4203 18.0841 15.5714 17.8583 15.7214 17.7083C16.0214 17.4083 16.2461 17.1838 16.5461 17.1838V15.6838C15.6461 15.6838 14.9714 16.2094 14.5964 16.6594C14.5964 16.5844 14.5953 16.5088 14.5203 16.4338C14.4453 16.2838 14.3714 16.1344 14.2214 15.9094C14.0714 15.6844 13.8458 15.6838 13.6208 15.6838C13.0208 15.6838 12.7956 16.0594 12.5706 16.2844C12.3456 16.5094 12.1214 16.8091 11.9714 17.1091C11.5214 17.6341 11.2208 17.9338 10.6208 17.9338C10.5458 17.9338 10.5464 17.8591 10.4714 17.8591C10.5464 17.8591 10.5458 17.7844 10.6208 17.7844C11.4458 17.1094 12.1208 16.2085 12.1208 15.0085C12.1208 14.4085 11.9711 13.8838 11.6711 13.4338C11.3711 12.9838 10.8458 12.6838 10.2458 12.6838ZM10.1711 14.1838C10.3961 14.1838 10.3964 14.1833 10.4714 14.3333C10.5464 14.4833 10.6208 14.7083 10.6208 15.0833C10.6208 15.5333 10.3953 15.9841 10.0203 16.3591C10.0203 16.1341 9.87085 15.8338 9.87085 15.6838C9.87085 15.0838 9.94644 14.6344 10.0964 14.4094C10.1714 14.2594 10.1711 14.1838 10.1711 14.1838Z" fill="currentColor"/>
</svg>
