<svg width="25" height="25" viewBox="0 0 25 25" fill="none" xmlns="http://www.w3.org/2000/svg">
<path d="M12.0133 3.06812C6.63731 3.06812 2.26331 7.44212 2.26331 12.8181C2.26331 18.1941 6.63731 22.5681 12.0133 22.5681C17.3893 22.5681 21.7633 18.1941 21.7633 12.8181C21.7633 7.44212 17.3893 3.06812 12.0133 3.06812ZM12.0133 4.56812C12.2668 4.56812 12.5158 4.5837 12.7633 4.6062V5.31812H14.2633V4.88745C16.1068 5.4117 17.6878 6.55885 18.7633 8.0896V10.5681L19.5133 12.0681V12.8181H20.2633C20.2633 13.0926 20.2485 13.3648 20.2223 13.6326C20.2155 13.7046 20.2005 13.7737 20.1915 13.845C20.1668 14.0422 20.1412 14.2382 20.1022 14.4309C20.0879 14.5029 20.0689 14.5735 20.0524 14.6448C20.0089 14.8353 19.9621 15.025 19.9059 15.2102C19.8864 15.274 19.8639 15.3362 19.8429 15.3992C19.7799 15.5897 19.7129 15.7786 19.6364 15.9631C19.6139 16.0171 19.5893 16.0696 19.566 16.1228C19.482 16.3141 19.394 16.5023 19.2965 16.6853C19.2733 16.7296 19.248 16.7729 19.2233 16.8157C19.1183 17.0047 19.0071 17.1879 18.8878 17.3679C18.8646 17.4032 18.84 17.4396 18.816 17.4749C18.69 17.6586 18.5564 17.837 18.4161 18.0095C18.3929 18.038 18.372 18.0653 18.3488 18.093C18.2033 18.2678 18.0493 18.4349 17.8903 18.5969C17.867 18.6202 17.8447 18.6455 17.8214 18.6687C17.6587 18.83 17.4886 18.9846 17.3131 19.1316C17.2884 19.1526 17.2668 19.1743 17.2413 19.1946C17.0658 19.3386 16.8817 19.4728 16.6949 19.6018C16.6657 19.6221 16.6392 19.6453 16.61 19.6648C16.4307 19.7855 16.2438 19.8952 16.0548 20.0017C15.1743 20.496 14.1955 20.8363 13.1515 20.9788L16.1603 18.7112L16.985 17.8865L18.0133 15.8181V15.0681L16.5133 14.3181H15.7633L14.2633 12.8181H12.7633L12.0133 13.5681V14.3181L11.2633 15.0681V16.5681L12.7633 17.7678L11.2809 21.0315C7.07413 20.658 3.76331 17.1194 3.76331 12.8181C3.76331 10.2621 4.93256 7.97423 6.76331 6.45923V6.81812L6.01331 7.56812V9.21753L6.76331 12.0681L10.5133 13.5681H11.2633V12.8181L9.01331 12.0681V10.5681H11.2633L12.0133 8.69312L13.5133 7.56812V6.81812L11.2633 5.31812L10.1852 4.77905C10.7739 4.64555 11.3841 4.56812 12.0133 4.56812ZM11.2633 11.3181V12.0681H12.7633V11.3181H11.2633Z" fill="#00050A"/>
</svg>
