<svg width="25" height="25" viewBox="0 0 25 25" fill="none" xmlns="http://www.w3.org/2000/svg">
<g clip-path="url(#clip0_212_6118)">
<path d="M12.0939 4.48755L11.7423 4.67505L1.61731 9.92505L0.328247 10.5813L1.59387 11.2141V17.5422C1.14563 17.803 0.843872 18.2776 0.843872 18.8313C0.843872 19.6604 1.51477 20.3313 2.34387 20.3313C3.17297 20.3313 3.84387 19.6604 3.84387 18.8313C3.84387 18.2776 3.54211 17.803 3.09387 17.5422V11.9875L4.59387 12.761V16.5813C4.59387 16.9124 4.74622 17.2112 4.922 17.4016C5.09778 17.592 5.31165 17.7063 5.53137 17.8235C5.97375 18.0549 6.49817 18.219 7.14856 18.3625C8.44934 18.6526 10.1837 18.8313 12.0939 18.8313C14.004 18.8313 15.7384 18.6526 17.0392 18.3625C17.6896 18.219 18.214 18.0549 18.6564 17.8235C18.8761 17.7063 19.09 17.592 19.2657 17.4016C19.4415 17.2112 19.5939 16.9124 19.5939 16.5813V12.761L22.5704 11.2375L23.8595 10.5813L22.5704 9.92505L12.4454 4.67505L12.0939 4.48755ZM12.0939 6.17505L20.5782 10.5813L19.2423 11.261C19.0724 11.0823 18.8673 10.9504 18.6564 10.8391C18.2169 10.6077 17.6896 10.4436 17.0392 10.3C15.7413 10.01 14.0128 9.8313 12.0939 9.8313C10.1749 9.8313 8.44641 10.01 7.14856 10.3C6.49817 10.4436 5.97083 10.6077 5.53137 10.8391C5.32043 10.9504 5.11536 11.0823 4.94543 11.261L3.6095 10.5813L12.0939 6.17505ZM12.0939 11.3313C13.9249 11.3313 15.5714 11.4983 16.7111 11.7532C17.2794 11.8791 17.7365 12.0256 17.9767 12.1516C18.0529 12.1926 18.0646 12.2219 18.0939 12.2454V15.1047C17.7804 14.9905 17.4376 14.8879 17.0392 14.8C15.7384 14.51 14.004 14.3313 12.0939 14.3313C10.1837 14.3313 8.44934 14.51 7.14856 14.8C6.75012 14.8879 6.40735 14.9905 6.09387 15.1047V12.2454C6.12317 12.2219 6.13489 12.1926 6.21106 12.1516C6.45129 12.0256 6.90833 11.8791 7.47668 11.7532C8.61633 11.4983 10.2628 11.3313 12.0939 11.3313ZM12.0939 15.8313C13.9132 15.8313 15.5685 15.9983 16.7111 16.2532C17.1857 16.3586 17.4845 16.47 17.7423 16.5813C17.4845 16.6926 17.1857 16.804 16.7111 16.9094C15.5685 17.1643 13.9132 17.3313 12.0939 17.3313C10.2745 17.3313 8.61926 17.1643 7.47668 16.9094C7.00208 16.804 6.70325 16.6926 6.44543 16.5813C6.70325 16.47 7.00208 16.3586 7.47668 16.2532C8.61926 15.9983 10.2745 15.8313 12.0939 15.8313Z" fill="#00050A"/>
</g>
<defs>
<clipPath id="clip0_212_6118">
<rect width="24" height="24" fill="white" transform="translate(0.0942383 0.831055)"/>
</clipPath>
</defs>
</svg>
