<svg width="25" height="25" viewBox="0 0 25 25" fill="none" xmlns="http://www.w3.org/2000/svg">
<path d="M12.8308 3.89819V4.79028C12.7221 4.82966 12.6164 4.87778 12.5159 4.93237C12.3149 5.04156 12.1327 5.17961 11.9739 5.34106C11.8151 5.50252 11.6799 5.68668 11.5754 5.88892C11.4188 6.19227 11.3308 6.53538 11.3308 6.89819C11.3308 7.05194 11.3474 7.2023 11.3777 7.3479C11.4383 7.63911 11.5562 7.91099 11.719 8.15064C11.8004 8.27046 11.8922 8.38243 11.9944 8.48462C12.0966 8.58681 12.2085 8.67862 12.3284 8.76001C12.6878 9.00417 13.1196 9.14819 13.5808 9.14819C13.6877 9.14819 13.7878 9.16841 13.8782 9.20532C13.9685 9.24224 14.0484 9.29649 14.1155 9.36353C14.1825 9.43056 14.2368 9.51048 14.2737 9.60083C14.3106 9.69118 14.3308 9.79132 14.3308 9.89819C14.3308 10.2188 14.1492 10.4803 13.8782 10.5911C13.7878 10.628 13.6877 10.6482 13.5808 10.6482C13.4739 10.6482 13.3738 10.628 13.2834 10.5911C13.1931 10.5542 13.1132 10.4999 13.0461 10.4329C12.9791 10.3658 12.9249 10.2859 12.8879 10.1956C12.851 10.1052 12.8308 10.0051 12.8308 9.89819H11.3308C11.3308 10.0191 11.3412 10.1384 11.3601 10.2542C11.379 10.3699 11.4058 10.4819 11.4421 10.5911C11.5511 10.9185 11.7357 11.2131 11.9739 11.4553C12.0533 11.5361 12.1381 11.6111 12.2288 11.6794C12.3195 11.7478 12.4154 11.8094 12.5159 11.864C12.6164 11.9186 12.7221 11.9667 12.8308 12.0061V12.8982H14.3308V12.0061C15.2008 11.6911 15.8308 10.8657 15.8308 9.89819C15.8308 8.82194 15.0498 7.90712 14.0305 7.69507C13.8849 7.66478 13.7346 7.64819 13.5808 7.64819C13.4739 7.64819 13.3738 7.62798 13.2834 7.59106C13.1931 7.55415 13.1132 7.49989 13.0461 7.43286C12.9791 7.36583 12.9249 7.28591 12.8879 7.19556C12.851 7.10521 12.8308 7.00507 12.8308 6.89819C12.8308 6.79132 12.851 6.69118 12.8879 6.60083C12.9249 6.51048 12.9791 6.43056 13.0461 6.36353C13.1802 6.22946 13.3671 6.14819 13.5808 6.14819C14.0083 6.14819 14.3308 6.47069 14.3308 6.89819H15.8308C15.8308 6.77726 15.8204 6.658 15.8015 6.54224C15.7826 6.42647 15.7558 6.31448 15.7195 6.20532C15.5015 5.55036 14.9833 5.02653 14.3308 4.79028V3.89819H12.8308ZM7.96753 14.3982C7.19428 14.4012 6.60522 14.5974 6.60522 14.5974L6.59058 14.6033L2.33667 16.2351L3.82495 20.4128L7.52222 18.9949L12.8748 21.9421L22.1179 18.113L21.5437 16.7302L12.9656 20.281L7.6394 17.3484L4.72144 18.4646L4.24097 17.1111L7.08862 16.0183C7.09537 16.0153 7.44553 15.8982 7.96753 15.8982C8.49478 15.8982 9.10952 16.0152 9.63452 16.49L9.64477 16.4959L9.6477 16.4988C10.421 17.17 11.0042 17.6391 11.8157 17.8933C12.6272 18.1483 13.5477 18.1776 15.0852 18.1716L15.0779 16.6716C13.5689 16.6776 12.7806 16.6242 12.2654 16.4607C11.7494 16.3024 11.3834 16.018 10.6394 15.3738L10.6306 15.3679C9.76286 14.5887 8.73178 14.3952 7.96753 14.3982Z" fill="currentColor"/>
</svg>
