<svg width="25" height="25" viewBox="0 0 25 25" fill="none" xmlns="http://www.w3.org/2000/svg">
<path d="M14.5917 6.15145C14.1757 6.15438 13.7626 6.17489 13.3261 6.29207C12.8895 6.40926 12.453 6.59676 11.9901 6.90145C11.4159 6.56453 10.8593 6.28621 10.3261 6.22176C9.66394 6.13973 9.04871 6.18368 8.33386 6.19832C7.48718 6.2159 6.93347 6.6495 6.03699 6.9952C5.1405 7.3409 3.98621 7.67489 2.3573 7.67489H1.6073V14.8936L2.02917 15.1046L3.41199 15.7843L8.33386 21.2686L8.3573 21.2921C8.9198 21.8487 9.67859 21.9864 10.3495 21.9483C11.0204 21.9102 11.6503 21.714 12.1542 21.4093C13.2616 20.7413 16.2792 18.6436 16.2792 18.6436L16.3495 18.5968L16.3964 18.5499C16.7538 18.1954 16.9325 17.7618 17.0526 17.3077L19.9354 15.8546L22.0917 15.128L22.6073 14.964V7.67489H21.8573C20.2313 7.67489 19.0741 7.32332 18.1776 6.97176C17.2811 6.6202 16.7362 6.19246 15.8807 6.17489C15.4237 6.1661 15.0077 6.14852 14.5917 6.15145ZM14.6151 7.65145C14.952 7.64852 15.3417 7.6661 15.8339 7.67489C15.913 7.67782 16.6337 7.98543 17.6386 8.37801C18.4882 8.712 19.6688 9.00789 21.1073 9.10457V13.8858L19.3729 14.4718H19.3261L19.2792 14.4952L17.0057 15.6436C16.8798 15.3009 16.7069 14.9845 16.4432 14.7061L16.3964 14.6358L13.2089 10.7218L12.7401 10.1358L12.1542 10.6046L10.1386 12.2452C9.46179 12.714 8.91394 12.5792 8.3573 12.3155C8.19617 12.2393 8.20496 12.2159 8.07605 12.128L11.4979 9.29207L11.5448 9.2452C12.5614 8.23739 13.1854 7.88875 13.7245 7.7452C13.994 7.67196 14.2782 7.65438 14.6151 7.65145ZM9.38855 7.67489C9.67566 7.66903 9.91589 7.67196 10.1386 7.69832C10.3348 7.72176 10.5575 7.88875 10.7479 7.95614C10.6718 8.02645 10.6161 8.06746 10.537 8.14364C10.5194 8.16122 10.5077 8.17293 10.4901 8.19051L6.38855 11.5889L5.75574 12.1046L6.31824 12.6905C6.31824 12.6905 6.86023 13.2765 7.70105 13.6749C8.54187 14.0733 9.83972 14.2989 11.0057 13.4874L11.0526 13.4405L12.5057 12.2452L15.2714 15.6436L15.2948 15.6905L15.3182 15.714C15.8134 16.2032 15.8016 16.9737 15.3182 17.4718C15.3124 17.4776 15.3241 17.4893 15.3182 17.4952C15.3124 17.4981 15.2128 17.5567 15.2011 17.5655L14.2167 16.2296L12.9979 17.1202L13.9589 18.4093C13.5692 18.6729 13.3934 18.8106 12.9745 19.089L11.9667 17.7296L10.7479 18.6202L11.7089 19.9093C11.6239 19.962 11.4481 20.0792 11.3807 20.1202C11.1434 20.2638 10.6864 20.4249 10.2792 20.4483C9.89539 20.4688 9.60242 20.3809 9.45886 20.2608L9.43543 20.2374L4.4198 14.6827L4.32605 14.5655L3.1073 13.9561V9.10457C4.53992 9.01082 5.72937 8.72664 6.57605 8.40145C7.578 8.01766 8.29285 7.70125 8.38074 7.69832C8.76453 7.68953 9.10144 7.68075 9.38855 7.67489Z" fill="#00050A"/>
</svg>
