<svg width="24" height="24" viewBox="0 0 24 24" fill="none" xmlns="http://www.w3.org/2000/svg">
<path d="M12.0408 2.28223C6.66479 2.28223 2.29077 6.65625 2.29077 12.0322C2.29077 17.4082 6.66479 21.7822 12.0408 21.7822C17.4167 21.7822 21.7908 17.4082 21.7908 12.0322C21.7908 6.65625 17.4167 2.28223 12.0408 2.28223ZM12.0408 3.78223C16.6052 3.78223 20.2908 7.46777 20.2908 12.0322C20.2908 16.5967 16.6052 20.2822 12.0408 20.2822C7.47632 20.2822 3.79077 16.5967 3.79077 12.0322C3.79077 7.46777 7.47632 3.78223 12.0408 3.78223ZM11.2908 7.53223V9.03223H12.7908V7.53223H11.2908ZM11.2908 10.5322V16.5322H12.7908V10.5322H11.2908Z" fill="currentColor"/>
</svg>
