<svg width="25" height="25" viewBox="0 0 25 25" fill="none" xmlns="http://www.w3.org/2000/svg">
<path d="M12.8304 3.22021V4.72021H15.8304V3.22021H12.8304ZM12.0804 5.47021V6.97021H10.5804C8.52087 6.97021 6.83044 8.66064 6.83044 10.7202V13.8608C5.96326 14.1743 5.33044 15.0005 5.33044 15.9702C5.33044 16.9399 5.96326 17.7661 6.83044 18.0796V19.7202H5.33044V21.2202H18.0804V19.7202H8.33044V18.0796C8.96326 17.8511 9.4613 17.353 9.68982 16.7202H18.0804V15.2202H9.68982C9.4613 14.5903 8.96033 14.0894 8.33044 13.8608V10.7202C8.33044 9.47803 9.33826 8.47021 10.5804 8.47021H12.0804V12.9702H16.5804V5.47021H12.0804ZM13.5804 6.97021H15.0804V11.4702H13.5804V6.97021ZM7.58044 15.2202C8.00232 15.2202 8.33044 15.5483 8.33044 15.9702C8.33044 16.3921 8.00232 16.7202 7.58044 16.7202C7.15857 16.7202 6.83044 16.3921 6.83044 15.9702C6.83044 15.5483 7.15857 15.2202 7.58044 15.2202Z" fill="currentColor"/>
</svg>
