<svg width="24" height="24" viewBox="0 0 24 24" fill="none" xmlns="http://www.w3.org/2000/svg">
<path d="M15.579 5.05714V6.38571H18.2482V5.05714H15.579ZM14.9118 7.05V8.37857H13.5772C11.7448 8.37857 10.2408 9.87581 10.2408 11.7V14.4817C9.46927 14.7593 8.90625 15.4911 8.90625 16.35C8.90625 17.2089 9.46927 17.9407 10.2408 18.2183V19.6714H8.90625V21H20.25V19.6714H11.5754V18.2183C12.1384 18.0159 12.5815 17.5748 12.7848 17.0143H20.25V15.6857H12.7848C12.5815 15.1278 12.1358 14.6841 11.5754 14.4817V11.7C11.5754 10.5998 12.472 9.70714 13.5772 9.70714H14.9118V13.6929H18.9154V7.05H14.9118ZM16.2463 8.37857H17.5809V12.3643H16.2463V8.37857ZM10.9081 15.6857C11.2834 15.6857 11.5754 15.9763 11.5754 16.35C11.5754 16.7237 11.2834 17.0143 10.9081 17.0143C10.5327 17.0143 10.2408 16.7237 10.2408 16.35C10.2408 15.9763 10.5327 15.6857 10.9081 15.6857Z" fill="currentColor"/>
<path d="M7.61719 3C5.48488 3 3.75 4.73037 3.75 6.85714C3.75 8.98391 5.48488 10.7143 7.61719 10.7143C9.7495 10.7143 11.4844 8.98391 11.4844 6.85714C11.4844 4.73037 9.7495 3 7.61719 3ZM7.61719 3.59341C7.71773 3.59341 7.8165 3.59957 7.91466 3.60847V3.89011H8.50962V3.71974C9.24081 3.92713 9.86789 4.38095 10.2945 4.98652V5.96703L10.5919 6.56044V6.85714H10.8894C10.8894 6.96574 10.8836 7.07342 10.8732 7.17934C10.8705 7.20783 10.8645 7.23518 10.861 7.26337C10.8511 7.3414 10.841 7.41892 10.8255 7.49517C10.8199 7.52365 10.8123 7.55159 10.8058 7.57978C10.7885 7.65514 10.77 7.73018 10.7477 7.80346C10.7399 7.82868 10.731 7.8533 10.7227 7.87822C10.6977 7.95358 10.6711 8.02834 10.6408 8.10133C10.6318 8.12269 10.6221 8.14343 10.6129 8.16449C10.5795 8.24015 10.5446 8.31462 10.506 8.38702C10.4967 8.40452 10.4867 8.42168 10.4769 8.43859C10.4353 8.51336 10.3912 8.58586 10.3439 8.65707C10.3346 8.67101 10.3249 8.68542 10.3154 8.69937C10.2654 8.77206 10.2124 8.84264 10.1568 8.91089C10.1476 8.92216 10.1393 8.93294 10.13 8.94392C10.0723 9.01305 10.0113 9.07918 9.94819 9.14327C9.93897 9.15246 9.9301 9.16246 9.92088 9.17166C9.85633 9.23545 9.78888 9.29663 9.71927 9.35478C9.70946 9.36309 9.70092 9.37169 9.6908 9.3797C9.62119 9.43667 9.54816 9.48977 9.47409 9.5408C9.46249 9.54881 9.45199 9.55801 9.44039 9.56572C9.36929 9.61349 9.29515 9.65687 9.22019 9.699C8.87095 9.89453 8.48272 10.0292 8.06863 10.0855L9.26202 9.18847L9.58913 8.86221L9.99699 8.04396V7.74725L9.40204 7.45055H9.10457L8.50962 6.85714H7.91466L7.61719 7.15385V7.45055L7.31971 7.74725V8.34066L7.91466 8.81527L7.32668 10.1064C5.65814 9.95863 4.34495 8.55874 4.34495 6.85714C4.34495 5.84598 4.80872 4.94088 5.53486 4.34154V4.48352L5.23738 4.78022V5.43274L5.53486 6.56044L7.02224 7.15385H7.31971V6.85714L6.42728 6.56044V5.96703H7.31971L7.61719 5.22527L8.21214 4.78022V4.48352L7.31971 3.89011L6.89209 3.67685C7.12561 3.62404 7.36761 3.59341 7.61719 3.59341ZM7.31971 6.26374V6.56044H7.91466V6.26374H7.31971Z" fill="currentColor"/>
</svg>
