<svg width="25" height="25" viewBox="0 0 25 25" fill="none" xmlns="http://www.w3.org/2000/svg">
<path d="M18.0524 3.33936C17.2672 3.33936 16.4821 3.64405 15.8727 4.25343L4.01319 16.1129L3.96632 16.3473L3.146 20.4723L2.91162 21.5739L4.01319 21.3395L8.13824 20.5192L8.37261 20.4723L20.2321 8.61284C21.4509 7.39408 21.4509 5.47219 20.2321 4.25343C19.6227 3.64405 18.8376 3.33936 18.0524 3.33936ZM18.0524 4.76906C18.4303 4.76906 18.8112 4.94191 19.1774 5.30812C19.9069 6.03762 19.9069 6.82865 19.1774 7.55815L18.6383 8.07378L16.4118 5.84719L16.9274 5.30812C17.2936 4.94191 17.6745 4.76906 18.0524 4.76906ZM15.3571 6.90189L17.5836 9.12847L8.51324 18.1989C8.02105 17.2379 7.2476 16.4645 6.28665 15.9723L15.3571 6.90189ZM5.32571 17.1911C6.22513 17.5543 6.93119 18.2604 7.29448 19.1598L4.83352 19.652L5.32571 17.1911Z" fill="currentColor"/>
</svg>
