<svg width="104" height="352" viewBox="0 0 104 352" fill="none" xmlns="http://www.w3.org/2000/svg">
<rect x="0.5" y="0.5" width="103" height="350.999" rx="4.5" stroke="#9747FF" stroke-dasharray="10 5"/>
<path d="M51.499 318.5V323.5H46.499V324.5H51.499V329.5H52.499V324.5H57.499V323.5H52.499V318.5H51.499Z" fill="#00050A"/>
<path d="M51.2499 263.751V271.25H43.7502V272.75H51.2499V280.25H52.7498V272.75H60.2495V271.25H52.7498V263.751H51.2499Z" fill="#00050A"/>
<path d="M51 200.999V210.999H41V212.999H51V222.999H53V212.999H63V210.999H53V200.999H51Z" fill="#00050A"/>
<path d="M50.5 123.502V138.502H35.5V141.502H50.5V156.502H53.5V141.502H68.5V138.502H53.5V123.502H50.5Z" fill="#00050A"/>
<path d="M49.9941 30.0043V50.0043H29.9941V54.0043H49.9941V74.0043H53.9941V54.0043H73.9942V50.0043H53.9941V30.0043H49.9941Z" fill="#00050A"/>
</svg>
