<svg width="25" height="25" viewBox="0 0 25 25" fill="none" xmlns="http://www.w3.org/2000/svg">
<path d="M7.6206 3.52832C6.38686 3.52832 5.37061 4.54457 5.37061 5.77832V16.2783H3.12061V19.2783C3.12061 20.5121 4.13686 21.5283 5.37061 21.5283H15.8706H15.894C17.1158 21.5163 18.1206 20.5031 18.1206 19.2783V8.77832H21.1206V5.77832C21.1206 4.54457 20.1044 3.52832 18.8706 3.52832H7.6206ZM7.6206 5.02832H16.7612C16.6765 5.26532 16.6206 5.51432 16.6206 5.77832V19.2783C16.6206 19.7028 16.2951 20.0283 15.8706 20.0283C15.4484 20.0343 15.1266 19.6998 15.1206 19.2783L15.0972 16.2783H6.87061V5.77832C6.87061 5.35382 7.19611 5.02832 7.6206 5.02832ZM18.8706 5.02832C19.2951 5.02832 19.6206 5.35382 19.6206 5.77832V7.27832H18.1206V5.77832C18.1206 5.35382 18.4461 5.02832 18.8706 5.02832ZM4.62061 17.7783H10.6206H13.5972H13.6206V19.2783V19.3018C13.6236 19.5598 13.6765 19.7966 13.7612 20.0283H5.37061C4.94611 20.0283 4.62061 19.7028 4.62061 19.2783V17.7783Z" fill="currentColor"/>
</svg>
