<svg width="25" height="25" viewBox="0 0 25 25" fill="none" xmlns="http://www.w3.org/2000/svg">
<path d="M14.3306 2.7915C10.1968 2.7915 6.83057 6.15771 6.83057 10.2915C6.83057 12.0874 7.46045 13.7339 8.51807 15.0259L2.5415 21.0024L3.61963 22.0806L9.59619 16.104C10.8882 17.1616 12.5347 17.7915 14.3306 17.7915C18.4644 17.7915 21.8306 14.4253 21.8306 10.2915C21.8306 6.15771 18.4644 2.7915 14.3306 2.7915ZM14.3306 4.2915C17.6528 4.2915 20.3306 6.96924 20.3306 10.2915C20.3306 13.6138 17.6528 16.2915 14.3306 16.2915C11.0083 16.2915 8.33057 13.6138 8.33057 10.2915C8.33057 6.96924 11.0083 4.2915 14.3306 4.2915Z" fill="currentColor"/>
</svg>
