<svg width="25" height="25" viewBox="0 0 25 25" fill="none" xmlns="http://www.w3.org/2000/svg">
<path d="M10.6075 2.97949C9.78723 2.97949 9.10754 3.65918 9.10754 4.47949V5.22949H6.85754V4.47949H5.35754V5.22949H3.85754C3.03723 5.22949 2.35754 5.90918 2.35754 6.72949V18.7295C2.35754 19.5498 3.03723 20.2295 3.85754 20.2295H20.3575C21.1779 20.2295 21.8575 19.5498 21.8575 18.7295V6.72949C21.8575 5.90918 21.1779 5.22949 20.3575 5.22949H18.8575V4.47949H17.3575V5.22949H15.1075V4.47949C15.1075 3.65918 14.4279 2.97949 13.6075 2.97949H10.6075ZM10.6075 4.47949H13.6075V5.22949H10.6075V4.47949ZM3.85754 6.72949H20.3575V18.7295H18.8575V7.47949H17.3575V18.7295H6.85754V7.47949H5.35754V18.7295H3.85754V6.72949Z" fill="currentColor"/>
</svg>
