<svg width="25" height="25" viewBox="0 0 25 25" fill="none" xmlns="http://www.w3.org/2000/svg">
<path d="M10.5953 3.88184C10.2027 3.88184 9.80133 4.01953 9.51714 4.30372C9.23296 4.5879 9.09527 4.98927 9.09527 5.38185V6.13186H3.84521V7.63187H4.66554L6.09524 21.2023L6.16555 21.882H18.025L18.0954 21.2023L19.5251 7.63187H20.3454V6.13186H15.0953V5.38185C15.0953 4.98927 14.9576 4.5879 14.6734 4.30372C14.3893 4.01953 13.9879 3.88184 13.5953 3.88184H10.5953ZM10.5953 5.38185H13.5953V6.13186H10.5953V5.38185ZM6.18899 7.63187H18.0016L16.6657 20.382H7.52494L6.18899 7.63187ZM9.09527 9.88189V18.132H10.5953V9.88189H9.09527ZM11.3453 9.88189V18.132H12.8453V9.88189H11.3453ZM13.5953 9.88189V18.132H15.0953V9.88189H13.5953Z" fill="currentColor"/>
</svg>
