<svg width="25" height="25" viewBox="0 0 25 25" fill="none" xmlns="http://www.w3.org/2000/svg">
<path d="M12.0689 4.68701C9.17729 4.68701 6.81887 7.04543 6.81887 9.93706C6.81887 11.7447 7.74173 13.3502 9.1392 14.2965C6.46437 15.4449 4.56885 18.0993 4.56885 21.1872H6.06886C6.06886 17.8649 8.74662 15.1871 12.0689 15.1871C15.3912 15.1871 18.069 17.8649 18.069 21.1872H19.569C19.569 18.0993 17.6735 15.4449 14.9986 14.2965C16.3961 13.3502 17.319 11.7447 17.319 9.93706C17.319 7.04543 14.9606 4.68701 12.0689 4.68701ZM12.0689 6.18703C14.149 6.18703 15.819 7.85696 15.819 9.93706C15.819 12.0172 14.149 13.6871 12.0689 13.6871C9.98882 13.6871 8.31888 12.0172 8.31888 9.93706C8.31888 7.85696 9.98882 6.18703 12.0689 6.18703Z" fill="currentColor"/>
</svg>
